# xmcd
#
# Track frame offsets:
# 150
# 16452
# 32517
# 47275
# 61249
# 76842
# 96962
# 113977
# 130208
# 145315
# 160951
# 181922
# 197566
# 213764
# 229188
# 247553
#
# Disc length: 3610 seconds
#
#
# Revision: 0
# Processed by: cddbd v1.5.2PL0 Copyright (c) Steve Scherf et al.
# Submitted via: FreeRIP 2.95 
#
DISCID=c50e1810
DTITLE=As 4 duplas - Melhor dos 4
DYEAR=1900
DGENRE=Sertanejo
TTITLE0=Quer casar comigo
TTITLE1=Apaixonado por você
TTITLE2=Você decide
TTITLE3=Dava uma em cima dela
TTITLE4=Que pescar que nada
TTITLE5=Fui eu
TTITLE6=Imperfeito
TTITLE7=Fera machucada
TTITLE8=Faz mais, faz
TTITLE9=Meu destino te escolheu
TTITLE10=Me esqueça
TTITLE11=Fica comigo
TTITLE12=Vai sofrer pra lá
TTITLE13=Paguei pra ver
TTITLE14=Desatino
TTITLE15=Rasgando as madrugadas
EXTD=
EXTT0=
EXTT1=
EXTT2=
EXTT3=
EXTT4=
EXTT5=
EXTT6=
EXTT7=
EXTT8=
EXTT9=
EXTT10=
EXTT11=
EXTT12=
EXTT13=
EXTT14=
EXTT15=
PLAYORDER=
